<?xml version="1.0" standalone="no"?>
<!DOCTYPE svg PUBLIC "-//W3C//DTD SVG 20010904//EN"
 "http://www.w3.org/TR/2001/REC-SVG-20010904/DTD/svg10.dtd">
<svg version="1.0" xmlns="http://www.w3.org/2000/svg"
 width="260.000000pt" height="260.000000pt" viewBox="0 0 260.000000 260.000000"
 preserveAspectRatio="xMidYMid meet">
<metadata>
Created by potrace 1.14, written by Peter Selinger 2001-2017
</metadata>
<g transform="translate(0.000000,260.000000) scale(0.100000,-0.100000)"
fill="#000000" stroke="none">
<path d="M608 1570 c-185 -32 -362 -150 -429 -285 -73 -148 -18 -242 147 -253
84 -5 143 7 229 48 144 69 211 206 125 258 l-28 18 44 24 c90 47 120 145 56
179 -28 14 -94 20 -144 11z m-20 -46 c26 -18 29 -61 8 -103 -16 -31 -80 -91
-97 -91 -6 0 -1 -12 10 -26 46 -58 16 -169 -61 -224 -62 -45 -87 -49 -115 -16
-27 32 -30 84 -8 166 32 122 129 265 200 296 38 17 36 17 63 -2z"/>
<path d="M1296 1494 c-13 -12 -16 -39 -16 -125 0 -96 2 -111 20 -129 11 -11
25 -20 30 -20 6 0 19 9 30 20 17 17 20 33 20 123 0 77 -4 108 -16 125 -18 26
-46 28 -68 6z"/>
<path d="M2392 1498 c-9 -9 -12 -73 -12 -225 0 -212 0 -214 23 -222 14 -6 29
-5 42 4 19 12 20 25 23 218 2 177 0 207 -14 221 -18 19 -45 21 -62 4z"/>
<path d="M916 1474 c-19 -18 -22 -143 -5 -176 16 -30 70 -48 144 -48 65 0 132
20 147 43 13 20 9 172 -4 185 -29 29 -78 1 -78 -44 0 -24 -2 -25 -62 -22 -59
3 -63 5 -66 28 -7 49 -45 66 -76 34z m204 -134 c0 -19 -7 -33 -19 -40 -47 -25
-111 2 -111 46 0 23 3 24 65 24 l65 0 0 -30z"/>
<path d="M2272 1468 c-8 -8 -12 -45 -12 -99 l0 -88 -52 -3 c-40 -2 -54 -7 -56
-20 -3 -14 6 -17 50 -20 l53 -3 3 -56 c4 -70 27 -99 67 -81 l25 12 0 173 c0
182 -4 197 -45 197 -12 0 -26 -5 -33 -12z"/>
<path d="M1464 1435 c-12 -31 7 -35 167 -35 113 0 159 -3 159 -12 0 -6 -16
-39 -35 -74 -19 -34 -35 -72 -35 -83 0 -24 40 -47 63 -38 16 6 127 195 127
214 0 7 -7 19 -16 27 -22 23 -422 24 -430 1z"/>
<path d="M1993 1434 c-9 -24 15 -34 80 -34 56 0 57 0 57 -30 0 -29 0 -29 -67
-32 l-68 -3 -3 -98 -3 -98 35 -14 c69 -29 206 -9 206 29 0 19 -21 21 -37 5
-17 -17 -93 -15 -104 2 -5 8 -9 39 -9 70 l0 56 62 6 c43 4 66 11 75 23 18 24
16 85 -3 112 -14 20 -23 22 -115 22 -82 0 -101 -3 -106 -16z"/>
<path d="M1057 1228 c-46 -12 -97 -58 -97 -88 0 -30 49 -76 96 -89 51 -14 163
-14 219 0 126 32 124 143 -3 179 -46 12 -164 11 -215 -2z m177 -49 c14 -11 26
-29 26 -39 0 -49 -90 -76 -150 -45 -38 20 -42 66 -8 89 32 23 100 20 132 -5z"/>
<path d="M1432 1202 c-6 -2 -12 -12 -12 -22 0 -13 16 -25 58 -41 49 -20 76
-23 197 -23 110 -1 151 3 192 17 62 22 81 40 63 62 -10 12 -16 13 -39 1 -83
-43 -314 -48 -401 -9 -25 11 -51 18 -58 15z"/>
</g>
</svg>
